<svg t="1685631917184" class="icon" viewBox="0 0 1024 1024" version="1.1" xmlns="http://www.w3.org/2000/svg" p-id="1163" width="200" height="200"><path d="M759.9 934.6c-3.2 0-6.5-0.1-9.7-0.4h-0.2c-83.4 0-242.7-59-409.7-225.2-167.2-166.5-225.9-326-225.4-411.9 0.2-36.6 10.4-65.7 29.5-84.4 4.3-4.3 9-9.2 13.7-14.2 30.1-31.5 67.7-70.8 118.2-68.5 34.8 1.6 67.6 22.3 100.2 63.3 90 113.4 56.5 161-0.7 215.8l-7.5 7.2c-0.5 1.1-10.7 29.6 111.7 153.1C602 689.2 630.3 682 633 680.8l8.1-8.2c55.6-56.2 103.5-89.1 214.5 0.2 41.5 33.5 62.2 66.9 63.5 102.3C921 826.7 881 864 849 893.9c-4.4 4.1-8.7 8.1-12.7 12-22.6 19.1-49 28.7-76.4 28.7zM380 669.1C525 813.4 671.6 878 752.5 878c18.1 1.5 33.7-3.5 46-13.8 2.8-2.8 7.4-7.1 12-11.5 24.9-23.3 53.2-49.6 52.3-75.5-0.6-17.9-14.9-38.2-42.5-60.5-79.9-64.3-96-47.9-139.1-4.4l-8.1 8.1c-25.6 26.2-64.9 22.3-116.5-11.6-31.3-20.6-68.3-52.1-116.4-99.3-89.2-90.1-128.7-149.1-128.4-191.6 0.1-16.4 6.1-30.9 17.2-41.8l7.8-7.6c44.1-42.3 60.6-58.2-4.5-140.1-21.5-27.1-41.2-41.3-58.6-42.1-25-1.8-51.6 26.6-74.9 51.1-5.1 5.4-10.1 10.6-15 15.4-8.2 8-12.6 23.7-12.7 44.5-0.4 81.1 64 227.5 208.9 371.8z m275.4-114.6h-1c-13.3 0-26.6-4.7-37.2-13.1l-0.9-0.4-116.7-116.6c-11.6-11.5-17.9-26.9-17.9-43.3s6.3-31.8 17.9-43.4c9.1-9.1 20.7-15.1 33.4-17.2L667.8 298c16.2-2.8 32.4 1.1 45.7 10.5 13.3 9.5 22.2 23.6 24.9 39.8 1.1 6.7 1.1 13.5 0 20.2L716 503.3c-5.2 29.8-30.6 51.2-60.6 51.2z m-0.5-56.3c2.9 0 4.9-1.7 5.3-4l22.4-134.8c-0.4-4.3-2.8-6-5.7-5.7l-134.8 22.5c-1.1 0.2-2 0.7-2.8 1.4-1.9 1.9-1.9 5 0 7L651.7 497c0.9 0.8 2.1 2 3.2 1.2z" p-id="1164"></path></svg>